<svg class="w-5 h-5" width="20" height="20" viewBox="0 0 20 20" fill="none" xmlns="http://www.w3.org/2000/svg">
<g clip-path="url(#clip0_3895_12425)">
<path d="M4.16602 6.66602C4.16602 4.30899 4.16602 3.13048 4.89825 2.39825C5.63048 1.66602 6.80899 1.66602 9.16602 1.66602H10.8327C13.1897 1.66602 14.3682 1.66602 15.1004 2.39825C15.8327 3.13048 15.8327 4.30899 15.8327 6.66602V13.3327C15.8327 15.6897 15.8327 16.8682 15.1004 17.6005C14.3682 18.3327 13.1897 18.3327 10.8327 18.3327H9.16602C6.80899 18.3327 5.63048 18.3327 4.89825 17.6005C4.16602 16.8682 4.16602 15.6897 4.16602 13.3327V6.66602Z" stroke="#98A2B3" stroke-width="1.5"/>
<path d="M4.16602 3.39648C3.35344 3.47641 2.80649 3.65705 2.39825 4.06528C1.66602 4.79752 1.66602 5.97603 1.66602 8.33305V11.6664C1.66602 14.0234 1.66602 15.2019 2.39825 15.9342C2.80649 16.3424 3.35344 16.523 4.16602 16.603" stroke="#98A2B3" stroke-width="1.5"/>
<path d="M15.834 3.39648C16.6466 3.47641 17.1935 3.65705 17.6018 4.06528C18.334 4.79752 18.334 5.97603 18.334 8.33305V11.6664C18.334 14.0234 18.334 15.2019 17.6018 15.9342C17.1935 16.3424 16.6466 16.523 15.834 16.603" stroke="#98A2B3" stroke-width="1.5"/>
<path d="M7.5 10.834H12.5" stroke="#98A2B3" stroke-width="1.5" stroke-linecap="round"/>
<path d="M7.5 7.5H12.5" stroke="#98A2B3" stroke-width="1.5" stroke-linecap="round"/>
<path d="M7.5 14.166H10" stroke="#98A2B3" stroke-width="1.5" stroke-linecap="round"/>
</g>
<defs>
<clipPath id="clip0_3895_12425">
<rect width="20" height="20" rx="5" fill="white"/>
</clipPath>
</defs>
</svg>
