<svg class="w-6 h-6" width="24" height="24" viewBox="0 0 24 24" fill="none" xmlns="http://www.w3.org/2000/svg">
<path d="M8.46002 6.29999C8.26111 6.29999 8.07034 6.37901 7.92969 6.51966C7.78904 6.66031 7.71002 6.85108 7.71002 7.04999C7.71002 7.2489 7.78904 7.43967 7.92969 7.58032C8.07034 7.72097 8.26111 7.79999 8.46002 7.79999H15.14L6.52002 16.42C6.44633 16.4886 6.38723 16.5715 6.34624 16.6634C6.30525 16.7554 6.2832 16.8548 6.28143 16.9555C6.27965 17.0562 6.29818 17.1562 6.3359 17.2496C6.37362 17.343 6.42976 17.4278 6.50098 17.499C6.5722 17.5702 6.65703 17.6264 6.75042 17.6641C6.84381 17.7018 6.94384 17.7204 7.04454 17.7186C7.14525 17.7168 7.24456 17.6948 7.33656 17.6538C7.42856 17.6128 7.51136 17.5537 7.58002 17.48L16.2 8.85999V15.54C16.2 15.7389 16.279 15.9297 16.4197 16.0703C16.5603 16.211 16.7511 16.29 16.95 16.29C17.1489 16.29 17.3397 16.211 17.4803 16.0703C17.621 15.9297 17.7 15.7389 17.7 15.54V7.04999C17.6995 6.95029 17.6791 6.85171 17.64 6.75999C17.5856 6.63213 17.4971 6.52164 17.3843 6.44054C17.2715 6.35944 17.1386 6.31083 17 6.29999H8.46002Z" fill="white"/>
</svg>
