<svg class="w-6 h-6" width="24" height="24" viewBox="0 0 24 24" fill="none" xmlns="http://www.w3.org/2000/svg">
<g clip-path="url(#clip0_1_6476)">
<path d="M12 24C18.6274 24 24 21.0153 24 17.3334C24 13.6515 18.6274 10.6667 12 10.6667C5.37258 10.6667 0 13.6515 0 17.3334C0 21.0153 5.37258 24 12 24Z" fill="#8899A6"/>
<path d="M12 22.8333C18.6274 22.8333 24 19.8486 24 16.1667C24 12.4848 18.6274 9.5 12 9.5C5.37258 9.5 0 12.4848 0 16.1667C0 19.8486 5.37258 22.8333 12 22.8333Z" fill="#CCD6DD"/>
<path d="M21.7833 15.79C21.7833 18.63 17.4033 20.9314 12 20.9314C6.59668 20.9314 2.21667 18.63 2.21667 15.79C2.21667 12.9514 6.59668 10.6494 12 10.6494C17.4027 10.6494 21.7833 12.9514 21.7833 15.79Z" fill="#DD2E44"/>
<path d="M21.4887 15.0287C21.4887 21.598 2.51135 21.598 2.51135 15.0287V9.18933H21.4887V15.0287Z" fill="#F4ABBA"/>
<path d="M11.9893 12.1107C6 12.1107 2.51067 9.35602 2.51067 9.35602C2.51067 9.35602 2.5 9.97202 2.5 10.4794C2.5 10.4794 2.52133 13.7447 4.21467 13.7447C5.854 13.7447 5.73467 15.31 6.77067 15.472C7.798 15.6327 7.912 14.8467 9.18733 14.8467C10.4627 14.8467 10.6873 16.2507 11.9893 16.2507C13.5153 16.2507 13.6407 14.8467 14.9153 14.8467C16.19 14.8467 16.3367 15.6627 17.1727 15.4367C18.1773 15.1647 17.7153 13.7454 19.764 13.7454C21.4573 13.7454 21.4993 10.6467 21.4993 10.6467C21.4993 10.14 21.488 9.35668 21.488 9.35668C21.488 9.35668 17.9793 12.1107 11.9893 12.1107Z" fill="#DD2E44"/>
<path d="M21.7833 8.49131C21.7833 11.3306 17.4033 13.6326 12 13.6326C6.59668 13.6326 2.21667 11.3306 2.21667 8.49131C2.21667 5.65198 6.59668 3.34998 12 3.34998C17.4027 3.34998 21.7833 5.65198 21.7833 8.49131Z" fill="#EA596E"/>
<path d="M17.1094 9.18933C16.7061 9.18933 16.3794 8.86266 16.3794 8.45933V3.35C16.3794 3.15639 16.4563 2.97071 16.5932 2.83381C16.7301 2.69691 16.9158 2.62 17.1094 2.62C17.303 2.62 17.4887 2.69691 17.6256 2.83381C17.7625 2.97071 17.8394 3.15639 17.8394 3.35V8.45933C17.8394 8.86266 17.5127 9.18933 17.1094 9.18933Z" fill="#FFF8E8"/>
<path d="M17.1093 4.44468C16.3347 4.44468 15.7253 4.09001 15.4793 3.49601C15.266 2.98068 15.16 1.86268 16.8513 0.172014C16.8852 0.138109 16.9254 0.111212 16.9697 0.0928604C17.014 0.0745091 17.0614 0.0650635 17.1093 0.0650635C17.1573 0.0650635 17.2047 0.0745091 17.249 0.0928604C17.2933 0.111212 17.3335 0.138109 17.3673 0.172014C19.0587 1.86335 18.9527 2.98068 18.7393 3.49601C18.4933 4.09001 17.884 4.44468 17.1093 4.44468Z" fill="#FAAA35"/>
<path d="M12 11.3787C11.5967 11.3787 11.27 11.052 11.27 10.6487V5.54C11.27 5.44413 11.2889 5.34921 11.3256 5.26064C11.3623 5.17207 11.416 5.0916 11.4838 5.02381C11.5516 4.95602 11.6321 4.90225 11.7207 4.86557C11.8092 4.82888 11.9042 4.81 12 4.81C12.0959 4.81 12.1908 4.82888 12.2794 4.86557C12.3679 4.90225 12.4484 4.95602 12.5162 5.02381C12.584 5.0916 12.6378 5.17207 12.6745 5.26064C12.7111 5.34921 12.73 5.44413 12.73 5.54V10.6493C12.73 11.052 12.4034 11.3787 12 11.3787Z" fill="#FFF8E8"/>
<path d="M12 6.63468C11.2253 6.63468 10.616 6.28002 10.37 5.68602C10.156 5.17068 10.0507 4.05268 11.742 2.36202C11.7759 2.32811 11.8161 2.30121 11.8604 2.28286C11.9046 2.26451 11.9521 2.25507 12 2.25507C12.0479 2.25507 12.0954 2.26451 12.1397 2.28286C12.1839 2.30121 12.2241 2.32811 12.258 2.36202C13.9493 4.05335 13.8433 5.17068 13.63 5.68602C13.384 6.28002 12.7747 6.63468 12 6.63468Z" fill="#FAAA35"/>
<path d="M6.89064 9.18933C6.48731 9.18933 6.16064 8.86266 6.16064 8.45933V3.35C6.16064 3.25413 6.17953 3.1592 6.21621 3.07064C6.2529 2.98207 6.30667 2.90159 6.37446 2.83381C6.44224 2.76602 6.52272 2.71225 6.61129 2.67556C6.69985 2.63888 6.79478 2.62 6.89064 2.62C6.98651 2.62 7.08144 2.63888 7.17 2.67556C7.25857 2.71225 7.33905 2.76602 7.40683 2.83381C7.47462 2.90159 7.52839 2.98207 7.56508 3.07064C7.60176 3.1592 7.62064 3.25413 7.62064 3.35V8.45933C7.62064 8.86266 7.29398 9.18933 6.89064 9.18933Z" fill="#FFF8E8"/>
<path d="M6.89064 4.44468C6.11597 4.44468 5.50664 4.09001 5.26064 3.49601C5.04664 2.98068 4.94131 1.86268 6.63264 0.172014C6.66651 0.138109 6.70673 0.111212 6.751 0.0928604C6.79527 0.0745091 6.84272 0.0650635 6.89064 0.0650635C6.93856 0.0650635 6.98602 0.0745091 7.03028 0.0928604C7.07455 0.111212 7.11477 0.138109 7.14864 0.172014C8.83997 1.86335 8.73397 2.98068 8.52064 3.49601C8.27464 4.09001 7.66531 4.44468 6.89064 4.44468Z" fill="#FAAA35"/>
</g>
<defs>
<clipPath id="clip0_1_6476">
<rect width="24" height="24" fill="white"/>
</clipPath>
</defs>
</svg>
