<svg class="w-5 h-5" width="20" height="20" viewBox="0 0 20 20" fill="none" xmlns="http://www.w3.org/2000/svg">
<path d="M5.80005 1.66667C6.14798 1.66667 6.43004 1.92497 6.43004 2.24359V3.40737C6.98885 3.39744 7.61522 3.39744 8.31999 3.39744H8.32002H11.68H11.68C12.3848 3.39744 13.0112 3.39744 13.57 3.40737V2.24359C13.57 1.92497 13.852 1.66667 14.2 1.66667C14.5479 1.66667 14.83 1.92497 14.83 2.24359V3.45841C16.039 3.54707 16.8327 3.76465 17.4158 4.29865C17.9989 4.83265 18.2365 5.55949 18.3333 6.66667V7.50001H1.66667V6.66667C1.76348 5.55949 2.00108 4.83265 2.5842 4.29865C3.16732 3.76465 3.96103 3.54707 5.17005 3.45841V2.24359C5.17005 1.92497 5.45211 1.66667 5.80005 1.66667Z" fill="#E0F2FE"/>
<path opacity="0.5" d="M18.3333 11.6667V10C18.3333 9.3008 18.3228 8.05439 18.312 7.5H1.67155C1.6608 8.05439 1.67137 9.3008 1.67137 10V11.6667C1.67137 14.8094 1.67137 16.3807 2.6474 17.357C3.62344 18.3333 5.19434 18.3333 8.33615 18.3333H11.6685C14.8104 18.3333 16.3813 18.3333 17.3573 17.357C18.3333 16.3807 18.3333 14.8094 18.3333 11.6667Z" fill="#E0F2FE"/>
<path d="M15 13.75C15 14.4404 14.4404 15 13.75 15C13.0596 15 12.5 14.4404 12.5 13.75C12.5 13.0596 13.0596 12.5 13.75 12.5C14.4404 12.5 15 13.0596 15 13.75Z" fill="#E0F2FE"/>
</svg>
