<svg class="w-8 h-8" width="32" height="32" viewBox="0 0 32 32" fill="none" xmlns="http://www.w3.org/2000/svg">
<rect width="32" height="32" rx="16" fill="white" fill-opacity="0.2"/>
<rect x="0.5" y="0.5" width="31" height="31" rx="15.5" stroke="url(#paint0_linear_520_860)" stroke-opacity="0.2"/>
<path d="M11.8 7.66666C12.1479 7.66666 12.43 7.92496 12.43 8.24359V9.40736C12.9888 9.39743 13.6152 9.39743 14.32 9.39743H14.32H17.6799H17.68C18.3847 9.39743 19.0111 9.39743 19.5699 9.40736V8.24359C19.5699 7.92496 19.852 7.66666 20.1999 7.66666C20.5479 7.66666 20.8299 7.92496 20.8299 8.24359V9.4584C22.0389 9.54706 22.8326 9.76464 23.4158 10.2986C23.9989 10.8326 24.2365 11.5595 24.3333 12.6667V13.5H7.66663V12.6667C7.76344 11.5595 8.00104 10.8326 8.58416 10.2986C9.16728 9.76464 9.96099 9.54706 11.17 9.4584V8.24359C11.17 7.92496 11.4521 7.66666 11.8 7.66666Z" fill="white"/>
<path opacity="0.5" d="M24.3333 17.6667V16C24.3333 15.3008 24.3227 14.0544 24.312 13.5H7.67151C7.66076 14.0544 7.67133 15.3008 7.67133 16V17.6667C7.67133 20.8094 7.67133 22.3807 8.64736 23.357C9.6234 24.3333 11.1943 24.3333 14.3361 24.3333H17.6685C20.8103 24.3333 22.3812 24.3333 23.3573 23.357C24.3333 22.3807 24.3333 20.8094 24.3333 17.6667Z" fill="white"/>
<path d="M21 19.75C21 20.4404 20.4404 21 19.75 21C19.0596 21 18.5 20.4404 18.5 19.75C18.5 19.0596 19.0596 18.5 19.75 18.5C20.4404 18.5 21 19.0596 21 19.75Z" fill="white"/>
<defs>
<linearGradient id="paint0_linear_520_860" x1="16" y1="0" x2="16" y2="32" gradientUnits="userSpaceOnUse">
<stop stop-color="white"/>
<stop offset="1" stop-color="white" stop-opacity="0"/>
</linearGradient>
</defs>
</svg>
