<svg class="w-[28px] h-[28px]" width="28" height="28" viewBox="0 0 28 28" fill="none" xmlns="http://www.w3.org/2000/svg">
<g clip-path="url(#clip0_720_888)">
<path fill-rule="evenodd" clip-rule="evenodd" d="M0.875 6.125C0.875 3.2255 3.2255 0.875 6.125 0.875H21.875C24.7745 0.875 27.125 3.2255 27.125 6.125V18.375C27.125 21.2745 24.7745 23.625 21.875 23.625H17.4595L14.6585 26.8262C14.4924 27.0161 14.2523 27.125 14 27.125C13.7477 27.125 13.5076 27.0161 13.3415 26.8262L10.5405 23.625H6.125C3.2255 23.625 0.875 21.2745 0.875 18.375V6.125ZM14 6.125C14.4085 6.125 14.7626 6.40767 14.8532 6.80597L15.3373 8.93502C15.5613 9.91979 16.3302 10.6887 17.315 10.9126L19.444 11.3968C19.8423 11.4873 20.125 11.8415 20.125 12.25C20.125 12.6585 19.8423 13.0126 19.444 13.1032L17.315 13.5873C16.3302 13.8113 15.5613 14.5802 15.3373 15.565L14.8532 17.694C14.7626 18.0923 14.4085 18.375 14 18.375C13.5915 18.375 13.2373 18.0923 13.1468 17.694L12.6626 15.565C12.4387 14.5802 11.6698 13.8113 10.685 13.5873L8.55597 13.1032C8.15767 13.0126 7.875 12.6585 7.875 12.25C7.875 11.8415 8.15767 11.4873 8.55597 11.3968L10.685 10.9126C11.6698 10.6887 12.4387 9.91979 12.6626 8.93502L13.1468 6.80597C13.2373 6.40767 13.5915 6.125 14 6.125Z" fill="url(#paint0_linear_720_888)"/>
<path d="M14.8532 6.80597C14.7627 6.40767 14.4085 6.125 14 6.125C13.5915 6.125 13.2373 6.40767 13.1468 6.80597L12.6626 8.93502C12.4387 9.91979 11.6698 10.6887 10.685 10.9126L8.55597 11.3968C8.15767 11.4873 7.875 11.8415 7.875 12.25C7.875 12.6585 8.15767 13.0127 8.55597 13.1032L10.685 13.5873C11.6698 13.8113 12.4387 14.5802 12.6626 15.565L13.1468 17.694C13.2373 18.0923 13.5915 18.375 14 18.375C14.4085 18.375 14.7627 18.0923 14.8532 17.694L15.3373 15.565C15.5613 14.5802 16.3302 13.8113 17.315 13.5873L19.444 13.1032C19.8423 13.0127 20.125 12.6585 20.125 12.25C20.125 11.8415 19.8423 11.4873 19.444 11.3968L17.315 10.9126C16.3302 10.6887 15.5613 9.91979 15.3373 8.93502L14.8532 6.80597Z" fill="white"/>
</g>
<defs>
<linearGradient id="paint0_linear_720_888" x1="34.4068" y1="32.4288" x2="11.1234" y2="5.19006" gradientUnits="userSpaceOnUse">
<stop offset="0.00265844" stop-color="#FF37DF"/>
<stop offset="1" stop-color="#6E00FF"/>
</linearGradient>
<clipPath id="clip0_720_888">
<rect width="28" height="28" fill="white"/>
</clipPath>
</defs>
</svg>
