<svg class="w-8 h-8" width="32" height="32" viewBox="0 0 32 32" fill="none" xmlns="http://www.w3.org/2000/svg">
<rect width="32" height="32" rx="16" fill="white" fill-opacity="0.2"/>
<rect x="0.5" y="0.5" width="31" height="31" rx="15.5" stroke="url(#paint0_linear_520_879)" stroke-opacity="0.2"/>
<path opacity="0.5" d="M16 24.3333C20.6024 24.3333 24.3334 20.6024 24.3334 16C24.3334 11.3976 20.6024 7.66666 16 7.66666C11.3977 7.66666 7.66671 11.3976 7.66671 16C7.66671 17.3331 7.97972 18.593 8.53626 19.7104C8.68415 20.0073 8.73338 20.3467 8.64764 20.6672L8.1513 22.5222C7.93583 23.3275 8.67255 24.0642 9.47783 23.8487L11.3329 23.3524C11.6533 23.2666 11.9927 23.3159 12.2896 23.4638C13.407 24.0203 14.667 24.3333 16 24.3333Z" fill="white"/>
<path d="M12.5209 16.7083C12.1412 16.7083 11.8334 17.0161 11.8334 17.3958C11.8334 17.7755 12.1412 18.0833 12.5209 18.0833H17.5625C17.9422 18.0833 18.25 17.7755 18.25 17.3958C18.25 17.0161 17.9422 16.7083 17.5625 16.7083H12.5209Z" fill="white"/>
<path d="M12.5209 13.5C12.1412 13.5 11.8334 13.8078 11.8334 14.1875C11.8334 14.5672 12.1412 14.875 12.5209 14.875H19.8542C20.2339 14.875 20.5417 14.5672 20.5417 14.1875C20.5417 13.8078 20.2339 13.5 19.8542 13.5H12.5209Z" fill="white"/>
<defs>
<linearGradient id="paint0_linear_520_879" x1="16" y1="0" x2="16" y2="32" gradientUnits="userSpaceOnUse">
<stop stop-color="white"/>
<stop offset="1" stop-color="white" stop-opacity="0"/>
</linearGradient>
</defs>
</svg>
