<svg class="w-8 h-8" width="32" height="32" viewBox="0 0 32 32" fill="none" xmlns="http://www.w3.org/2000/svg">
<rect width="32" height="32" rx="16" fill="white" fill-opacity="0.2"/>
<rect x="0.5" y="0.5" width="31" height="31" rx="15.5" stroke="url(#paint0_linear_520_865)" stroke-opacity="0.2"/>
<path opacity="0.5" d="M17.6666 9.33333H14.3333C11.1906 9.33333 9.61925 9.33333 8.64294 10.3096C7.66663 11.2859 7.66663 12.8573 7.66663 16C7.66663 19.1427 7.66663 20.714 8.64294 21.6904C9.61925 22.6667 11.1906 22.6667 14.3333 22.6667H17.6666C20.8093 22.6667 22.3807 22.6667 23.357 21.6904C24.3333 20.714 24.3333 19.1427 24.3333 16C24.3333 12.8573 24.3333 11.2859 23.357 10.3096C22.3807 9.33333 20.8093 9.33333 17.6666 9.33333Z" fill="white"/>
<path d="M17.0416 13.5C17.0416 13.1548 17.3214 12.875 17.6666 12.875H21.8333C22.1785 12.875 22.4583 13.1548 22.4583 13.5C22.4583 13.8452 22.1785 14.125 21.8333 14.125H17.6666C17.3214 14.125 17.0416 13.8452 17.0416 13.5Z" fill="white"/>
<path d="M17.875 16C17.875 15.6548 18.1548 15.375 18.5 15.375H21.8333C22.1785 15.375 22.4583 15.6548 22.4583 16C22.4583 16.3452 22.1785 16.625 21.8333 16.625H18.5C18.1548 16.625 17.875 16.3452 17.875 16Z" fill="white"/>
<path d="M18.7083 18.5C18.7083 18.1548 18.9881 17.875 19.3333 17.875H21.8333C22.1785 17.875 22.4583 18.1548 22.4583 18.5C22.4583 18.8452 22.1785 19.125 21.8333 19.125H19.3333C18.9881 19.125 18.7083 18.8452 18.7083 18.5Z" fill="white"/>
<path d="M13.5 15.1667C14.4204 15.1667 15.1666 14.4205 15.1666 13.5C15.1666 12.5795 14.4204 11.8333 13.5 11.8333C12.5795 11.8333 11.8333 12.5795 11.8333 13.5C11.8333 14.4205 12.5795 15.1667 13.5 15.1667Z" fill="white"/>
<path d="M13.5 20.1667C16.8333 20.1667 16.8333 19.4205 16.8333 18.5C16.8333 17.5795 15.3409 16.8333 13.5 16.8333C11.659 16.8333 10.1666 17.5795 10.1666 18.5C10.1666 19.4205 10.1666 20.1667 13.5 20.1667Z" fill="white"/>
<defs>
<linearGradient id="paint0_linear_520_865" x1="16" y1="0" x2="16" y2="32" gradientUnits="userSpaceOnUse">
<stop stop-color="white"/>
<stop offset="1" stop-color="white" stop-opacity="0"/>
</linearGradient>
</defs>
</svg>
