<svg class="w-8 h-8" width="32" height="32" viewBox="0 0 32 32" fill="none" xmlns="http://www.w3.org/2000/svg">
<rect width="32" height="32" rx="16" fill="#E4E7EC"/>
<g clip-path="url(#clip0_3895_21187)">
<path opacity="0.5" d="M17.6195 25.938C18.3673 25.1902 18.3673 23.9778 17.6195 23.23C16.8717 22.4822 15.6594 22.4822 14.9116 23.23C14.1638 23.9778 14.1638 25.1902 14.9116 25.938C15.6594 26.6857 16.8717 26.6857 17.6195 25.938Z" fill="#98A2B3"/>
<path d="M21.0791 16.2966C20.2975 17.3516 19.5121 17.8988 18.9259 18.3286C18.2615 18.7976 17.9489 19.032 17.8317 20.1692C17.7925 20.5992 17.4409 20.9118 17.0109 20.9118H15.5651C15.3307 20.9118 15.0961 20.7946 14.9399 20.6382C14.7835 20.4818 14.7053 20.2474 14.7053 20.013C14.9007 17.508 15.8777 16.6482 17.0893 15.7494C17.5973 15.3978 18.0661 15.0852 18.5351 14.4208C19.0821 13.7956 19.1211 12.8576 18.7305 12.0722C18.4569 11.525 17.7535 10.6262 16.0731 10.6262C13.8847 10.6262 13.2203 11.955 13.0251 13.0922C12.9469 13.483 12.5951 13.7956 12.2005 13.7956H10.7155C10.4809 13.7956 10.2465 13.6784 10.0901 13.522C9.93389 13.3266 9.85569 13.092 9.89469 12.8576C10.2855 10.2746 12.0831 7.5 16.0731 7.5C18.4959 7.5 20.5319 8.6724 21.5091 10.6262C22.4469 12.506 22.2905 14.6942 21.0791 16.2966Z" fill="#98A2B3"/>
</g>
<defs>
<clipPath id="clip0_3895_21187">
<rect width="20" height="20" fill="white" transform="translate(6 7)"/>
</clipPath>
</defs>
</svg>
