<svg class="w-8 h-8" width="32" height="32" viewBox="0 0 32 32" fill="none" xmlns="http://www.w3.org/2000/svg">
<rect x="0.5" y="0.5" width="31" height="31" rx="15.5" fill="#E4E7EC"/>
<rect x="0.5" y="0.5" width="31" height="31" rx="15.5" stroke="#E4E7EC"/>
<path opacity="0.5" d="M21.6243 13.4993V14.0861C21.6243 14.7903 21.8252 15.4787 22.2018 16.0646L23.1247 17.5003C23.9676 18.8117 23.3241 20.5943 21.858 21.009C18.0227 22.0939 13.9773 22.0939 10.142 21.009C8.67587 20.5943 8.03235 18.8117 8.8753 17.5003L9.79816 16.0646C10.1748 15.4787 10.3757 14.7903 10.3757 14.0861V13.4993C10.3757 10.2777 12.8938 7.66602 16 7.66602C19.1062 7.66602 21.6243 10.2777 21.6243 13.4993Z" fill="#98A2B3"/>
<path d="M16.625 11C16.625 10.6548 16.3452 10.375 16 10.375C15.6548 10.375 15.375 10.6548 15.375 11V14.3333C15.375 14.6785 15.6548 14.9583 16 14.9583C16.3452 14.9583 16.625 14.6785 16.625 14.3333V11Z" fill="#98A2B3"/>
<path d="M12.0361 21.4531C12.5786 23.1241 14.1482 24.3321 16 24.3321C17.8518 24.3321 19.4214 23.1241 19.9639 21.4531C17.3427 21.945 14.6573 21.945 12.0361 21.4531Z" fill="#98A2B3"/>
</svg>
