<svg class="w-8 h-8" width="32" height="32" viewBox="0 0 32 32" fill="none" xmlns="http://www.w3.org/2000/svg">
<rect x="0.5" y="0.5" width="31" height="31" rx="15.5" fill="#E4E7EC"/>
<rect x="0.5" y="0.5" width="31" height="31" rx="15.5" stroke="#E4E7EC"/>
<path d="M11.8004 7.66602C12.1483 7.66602 12.4304 7.92431 12.4304 8.24294V9.40671C12.9892 9.39679 13.6155 9.39679 14.3203 9.39679H14.3203H17.6803H17.6803C18.3851 9.39679 19.0115 9.39679 19.5703 9.40671V8.24294C19.5703 7.92431 19.8523 7.66602 20.2003 7.66602C20.5482 7.66602 20.8303 7.92431 20.8303 8.24294V9.45775C22.0393 9.54641 22.833 9.764 23.4161 10.298C23.9992 10.832 24.2368 11.5588 24.3337 12.666V13.4993H7.66699V12.666C7.76381 11.5588 8.00141 10.832 8.58453 10.298C9.16765 9.764 9.96135 9.54641 11.1704 9.45775V8.24294C11.1704 7.92431 11.4524 7.66602 11.8004 7.66602Z" fill="#98A2B3"/>
<path opacity="0.5" d="M24.3337 17.6667V16C24.3337 15.3008 24.3231 14.0544 24.3123 13.5H7.67187C7.66112 14.0544 7.67169 15.3008 7.67169 16V17.6667C7.67169 20.8094 7.67169 22.3807 8.64773 23.357C9.62376 24.3333 11.1947 24.3333 14.3365 24.3333H17.6689C20.8107 24.3333 22.3816 24.3333 23.3576 23.357C24.3337 22.3807 24.3337 20.8094 24.3337 17.6667Z" fill="#98A2B3"/>
<path d="M21 19.75C21 20.4404 20.4404 21 19.75 21C19.0596 21 18.5 20.4404 18.5 19.75C18.5 19.0596 19.0596 18.5 19.75 18.5C20.4404 18.5 21 19.0596 21 19.75Z" fill="#98A2B3"/>
</svg>
