<svg class="w-8 h-8" width="32" height="32" viewBox="0 0 32 32" fill="none" xmlns="http://www.w3.org/2000/svg">
<path d="M16 0.5C24.5604 0.5 31.5 7.43959 31.5 16C31.5 24.5604 24.5604 31.5 16 31.5C7.43959 31.5 0.5 24.5604 0.5 16C0.5 7.43959 7.43959 0.5 16 0.5Z" fill="#E4E7EC"/>
<path d="M16 0.5C24.5604 0.5 31.5 7.43959 31.5 16C31.5 24.5604 24.5604 31.5 16 31.5C7.43959 31.5 0.5 24.5604 0.5 16C0.5 7.43959 7.43959 0.5 16 0.5Z" stroke="#E4E7EC"/>
<path d="M9.5206 15V14.233L12.4013 11.0795C12.7393 10.7102 13.0178 10.3892 13.2365 10.1165C13.4553 9.84091 13.6172 9.58239 13.7223 9.34091C13.8303 9.09659 13.8842 8.84091 13.8842 8.57386C13.8842 8.26705 13.8104 8.00142 13.6626 7.77699C13.5178 7.55256 13.3189 7.37926 13.0661 7.2571C12.8132 7.13494 12.5291 7.07386 12.2138 7.07386C11.8786 7.07386 11.5859 7.14347 11.3359 7.28267C11.0888 7.41903 10.897 7.6108 10.7607 7.85795C10.6271 8.10511 10.5604 8.39489 10.5604 8.72727H9.55469C9.55469 8.21591 9.67259 7.76705 9.90838 7.38068C10.1442 6.99432 10.4652 6.69318 10.8714 6.47727C11.2805 6.26136 11.7393 6.15341 12.2479 6.15341C12.7592 6.15341 13.2124 6.26136 13.6072 6.47727C14.0021 6.69318 14.3118 6.98437 14.5362 7.35085C14.7607 7.71733 14.8729 8.125 14.8729 8.57386C14.8729 8.89489 14.8146 9.20881 14.6982 9.51562C14.5845 9.8196 14.3857 10.1591 14.1016 10.5341C13.8203 10.9062 13.4297 11.3608 12.9297 11.8977L10.9695 13.9943V14.0625H15.0263V15H9.5206ZM19.6328 15.1193C18.9908 15.1193 18.4439 14.9446 17.9922 14.5952C17.5405 14.2429 17.1953 13.733 16.9567 13.0653C16.718 12.3949 16.5987 11.5852 16.5987 10.6364C16.5987 9.69318 16.718 8.88778 16.9567 8.22017C17.1982 7.54972 17.5447 7.03835 17.9964 6.68608C18.451 6.33097 18.9964 6.15341 19.6328 6.15341C20.2692 6.15341 20.8132 6.33097 21.2649 6.68608C21.7195 7.03835 22.0661 7.54972 22.3047 8.22017C22.5462 8.88778 22.6669 9.69318 22.6669 10.6364C22.6669 11.5852 22.5476 12.3949 22.3089 13.0653C22.0703 13.733 21.7251 14.2429 21.2734 14.5952C20.8217 14.9446 20.2749 15.1193 19.6328 15.1193ZM19.6328 14.1818C20.2692 14.1818 20.7635 13.875 21.1158 13.2614C21.468 12.6477 21.6442 11.7727 21.6442 10.6364C21.6442 9.88068 21.5632 9.23722 21.4013 8.70597C21.2422 8.17472 21.0121 7.76989 20.7109 7.49148C20.4126 7.21307 20.0533 7.07386 19.6328 7.07386C19.0021 7.07386 18.5092 7.38494 18.1541 8.0071C17.799 8.62642 17.6214 9.50284 17.6214 10.6364C17.6214 11.392 17.701 12.0341 17.8601 12.5625C18.0192 13.0909 18.2479 13.4929 18.5462 13.7685C18.8473 14.044 19.2095 14.1818 19.6328 14.1818Z" fill="#98A2B3"/>
<path d="M9.0609 26V24.6705L12.1674 21.794C12.4316 21.5384 12.6532 21.3082 12.8322 21.1037C13.014 20.8991 13.1518 20.6989 13.2456 20.5028C13.3393 20.304 13.3862 20.0895 13.3862 19.8594C13.3862 19.6037 13.3279 19.3835 13.2115 19.1989C13.095 19.0114 12.9359 18.8679 12.7342 18.7685C12.5325 18.6662 12.3038 18.6151 12.0481 18.6151C11.7811 18.6151 11.5481 18.669 11.3493 18.777C11.1504 18.8849 10.997 19.0398 10.889 19.2415C10.7811 19.4432 10.7271 19.6832 10.7271 19.9616H8.97567C8.97567 19.3906 9.10494 18.8949 9.36346 18.4744C9.62198 18.054 9.9842 17.7287 10.4501 17.4986C10.916 17.2685 11.4529 17.1534 12.0609 17.1534C12.6859 17.1534 13.2299 17.2642 13.693 17.4858C14.1589 17.7045 14.5211 18.0085 14.7797 18.3977C15.0382 18.7869 15.1674 19.233 15.1674 19.7358C15.1674 20.0653 15.1021 20.3906 14.9714 20.7116C14.8436 21.0327 14.6149 21.3892 14.2853 21.7812C13.9558 22.1705 13.4913 22.6378 12.8919 23.1832L11.6177 24.4318V24.4915H15.2825V26H9.0609ZM19.807 26.1193C19.2047 26.1193 18.6678 26.0085 18.1962 25.7869C17.7275 25.5653 17.3553 25.2599 17.0797 24.8707C16.8042 24.4815 16.6607 24.0355 16.6493 23.5327H18.4391C18.459 23.8707 18.601 24.1449 18.8652 24.3551C19.1294 24.5653 19.4434 24.6705 19.807 24.6705C20.0968 24.6705 20.3525 24.6065 20.574 24.4787C20.7985 24.348 20.9732 24.1676 21.0982 23.9375C21.226 23.7045 21.29 23.4375 21.29 23.1364C21.29 22.8295 21.2246 22.5597 21.0939 22.3267C20.9661 22.0937 20.7885 21.9119 20.5613 21.7812C20.334 21.6506 20.074 21.5838 19.7814 21.581C19.5257 21.581 19.2772 21.6335 19.0357 21.7386C18.7971 21.8437 18.611 21.9872 18.4775 22.169L16.8368 21.875L17.2502 17.2727H22.5854V18.7812H18.7715L18.5456 20.9673H18.5968C18.7502 20.7514 18.9817 20.5724 19.2914 20.4304C19.601 20.2884 19.9476 20.2173 20.3311 20.2173C20.8567 20.2173 21.3255 20.3409 21.7374 20.5881C22.1493 20.8352 22.4746 21.1747 22.7132 21.6065C22.9519 22.0355 23.0698 22.5298 23.0669 23.0895C23.0698 23.6776 22.9334 24.2003 22.6578 24.6577C22.3851 25.1122 22.003 25.4702 21.5115 25.7315C21.0229 25.9901 20.4547 26.1193 19.807 26.1193Z" fill="#667085"/>
</svg>
