<svg class="w-8 h-8" width="32" height="32" viewBox="0 0 32 32" fill="none" xmlns="http://www.w3.org/2000/svg">
<rect x="0.5" y="0.5" width="31" height="31" rx="15.5" fill="#E4E7EC"/>
<rect x="0.5" y="0.5" width="31" height="31" rx="15.5" stroke="#E4E7EC"/>
<path opacity="0.5" d="M15.9997 24.3327C20.602 24.3327 24.333 20.6017 24.333 15.9993C24.333 11.397 20.602 7.66602 15.9997 7.66602C11.3973 7.66602 7.66634 11.397 7.66634 15.9993C7.66634 17.3324 7.97935 18.5924 8.53589 19.7097C8.68379 20.0067 8.73302 20.3461 8.64727 20.6665L8.15093 22.5216C7.93547 23.3268 8.67219 24.0636 9.47746 23.8481L11.3325 23.3518C11.653 23.266 11.9923 23.3152 12.2893 23.4631C13.4066 24.0197 14.6666 24.3327 15.9997 24.3327Z" fill="#98A2B3"/>
<path d="M12.5205 16.7083C12.1408 16.7083 11.833 17.0161 11.833 17.3958C11.833 17.7755 12.1408 18.0833 12.5205 18.0833H17.5622C17.9419 18.0833 18.2497 17.7755 18.2497 17.3958C18.2497 17.0161 17.9419 16.7083 17.5622 16.7083H12.5205Z" fill="#98A2B3"/>
<path d="M12.5205 13.5C12.1408 13.5 11.833 13.8078 11.833 14.1875C11.833 14.5672 12.1408 14.875 12.5205 14.875H19.8538C20.2335 14.875 20.5413 14.5672 20.5413 14.1875C20.5413 13.8078 20.2335 13.5 19.8538 13.5H12.5205Z" fill="#98A2B3"/>
</svg>
