<svg class="w-8 h-8" width="32" height="32" viewBox="0 0 32 32" fill="none" xmlns="http://www.w3.org/2000/svg">
<rect x="0.5" y="0.5" width="31" height="31" rx="15.5" fill="#E4E7EC"/>
<rect x="0.5" y="0.5" width="31" height="31" rx="15.5" stroke="#E4E7EC"/>
<path opacity="0.5" d="M17.667 9.33398H14.3337C11.191 9.33398 9.61961 9.33398 8.6433 10.3103C7.66699 11.2866 7.66699 12.858 7.66699 16.0007C7.66699 19.1433 7.66699 20.7147 8.6433 21.691C9.61961 22.6673 11.191 22.6673 14.3337 22.6673H17.667C20.8097 22.6673 22.381 22.6673 23.3573 21.691C24.3337 20.7147 24.3337 19.1433 24.3337 16.0007C24.3337 12.858 24.3337 11.2866 23.3573 10.3103C22.381 9.33398 20.8097 9.33398 17.667 9.33398Z" fill="#98A2B3"/>
<path d="M17.042 13.5007C17.042 13.1555 17.3218 12.8757 17.667 12.8757H21.8337C22.1788 12.8757 22.4587 13.1555 22.4587 13.5007C22.4587 13.8458 22.1788 14.1257 21.8337 14.1257H17.667C17.3218 14.1257 17.042 13.8458 17.042 13.5007Z" fill="#98A2B3"/>
<path d="M17.8753 16.0007C17.8753 15.6555 18.1551 15.3757 18.5003 15.3757H21.8337C22.1788 15.3757 22.4587 15.6555 22.4587 16.0007C22.4587 16.3458 22.1788 16.6257 21.8337 16.6257H18.5003C18.1551 16.6257 17.8753 16.3458 17.8753 16.0007Z" fill="#98A2B3"/>
<path d="M18.7087 18.5007C18.7087 18.1555 18.9885 17.8757 19.3337 17.8757H21.8337C22.1788 17.8757 22.4587 18.1555 22.4587 18.5007C22.4587 18.8458 22.1788 19.1257 21.8337 19.1257H19.3337C18.9885 19.1257 18.7087 18.8458 18.7087 18.5007Z" fill="#98A2B3"/>
<path d="M13.5003 15.1673C14.4208 15.1673 15.167 14.4211 15.167 13.5007C15.167 12.5802 14.4208 11.834 13.5003 11.834C12.5799 11.834 11.8337 12.5802 11.8337 13.5007C11.8337 14.4211 12.5799 15.1673 13.5003 15.1673Z" fill="#98A2B3"/>
<path d="M13.5003 20.1673C16.8337 20.1673 16.8337 19.4211 16.8337 18.5007C16.8337 17.5802 15.3413 16.834 13.5003 16.834C11.6594 16.834 10.167 17.5802 10.167 18.5007C10.167 19.4211 10.167 20.1673 13.5003 20.1673Z" fill="#98A2B3"/>
</svg>
