<svg class="w-4 h-4" width="16" height="16" viewBox="0 0 16 16" fill="none" xmlns="http://www.w3.org/2000/svg">
<g clip-path="url(#clip0_1_128829)">
<path d="M1.33398 7.99935C1.33398 5.48519 1.33398 4.22811 2.11503 3.44706C2.89608 2.66602 4.15316 2.66602 6.66732 2.66602H9.33398C11.8481 2.66602 13.1052 2.66602 13.8863 3.44706C14.6673 4.22811 14.6673 5.48519 14.6673 7.99935V9.33268C14.6673 11.8468 14.6673 13.1039 13.8863 13.885C13.1052 14.666 11.8481 14.666 9.33398 14.666H6.66732C4.15316 14.666 2.89608 14.666 2.11503 13.885C1.33398 13.1039 1.33398 11.8468 1.33398 9.33268V7.99935Z" stroke="#667085" stroke-width="1.5"/>
<path d="M4.66602 2.66602V1.66602" stroke="#667085" stroke-width="1.5" stroke-linecap="round"/>
<path d="M11.334 2.66602V1.66602" stroke="#667085" stroke-width="1.5" stroke-linecap="round"/>
<path d="M6 9.66602L7 8.66602V11.3327" stroke="#667085" stroke-width="1.5" stroke-linecap="round" stroke-linejoin="round"/>
<path d="M8.66602 10.666V9.33268C8.66602 8.96449 8.96449 8.66602 9.33268 8.66602C9.70087 8.66602 9.99935 8.96449 9.99935 9.33268V10.666C9.99935 11.0342 9.70087 11.3327 9.33268 11.3327C8.96449 11.3327 8.66602 11.0342 8.66602 10.666Z" stroke="#667085" stroke-width="1.5" stroke-linecap="round"/>
<path d="M1.66602 6H14.3327" stroke="#667085" stroke-width="1.5" stroke-linecap="round"/>
</g>
<defs>
<clipPath id="clip0_1_128829">
<rect width="16" height="16" rx="5" fill="white"/>
</clipPath>
</defs>
</svg>
