<svg class="w-[65px] h-[10px]" width="65" height="11" viewBox="0 0 65 11" fill="none" xmlns="http://www.w3.org/2000/svg">
<path d="M60.1368 5.97377C60.3228 6.92343 61.0996 7.46157 62.1172 7.46157C62.8721 7.46157 63.4192 7.12391 63.6927 6.69129L64.5023 7.13446C64.0209 7.85198 63.1894 8.32681 62.0953 8.32681C60.3338 8.32681 59.1631 7.13446 59.1631 5.5517C59.1631 3.99005 60.3228 2.7766 62.0296 2.7766C63.6818 2.7766 64.754 4.08501 64.754 5.56226C64.754 5.69943 64.7431 5.8366 64.7212 5.97377H60.1368ZM62.0296 3.64184C61.0012 3.64184 60.29 4.25384 60.1368 5.17184H63.7912C63.6271 4.12722 62.8502 3.64184 62.0296 3.64184Z" fill="#98A2B3"/>
<path d="M56.1426 8.32681C54.4905 8.32681 53.2651 7.11336 53.2651 5.5517C53.2651 3.99005 54.4905 2.7766 56.1426 2.7766C57.2258 2.7766 58.1448 3.32529 58.5606 4.15888L57.7619 4.60205C57.4884 4.04281 56.8757 3.6735 56.1426 3.6735C55.0485 3.6735 54.217 4.48598 54.217 5.5517C54.217 6.60688 55.0485 7.41936 56.1426 7.41936C56.8866 7.41936 57.4884 7.05005 57.7947 6.50136L58.6044 6.95508C58.1448 7.77812 57.2148 8.32681 56.1426 8.32681Z" fill="#98A2B3"/>
<path d="M52.1299 2.91377V8.18964H51.178V3.80012H49.1539V8.18964H48.202V3.80012H46.1669V8.18964H45.215V3.80012H44.3397V2.91377H45.215V2.7555C45.215 1.35212 46.0466 0.560739 47.6111 0.666256V1.5526C46.6593 1.47874 46.1669 1.8375 46.1669 2.7555V2.91377H48.202V2.64998C48.202 1.2466 49.0226 0.560739 50.5871 0.560739C50.9482 0.560739 51.3093 0.613498 51.7141 0.697912V1.5315C51.3093 1.47874 50.9482 1.44708 50.5871 1.44708C49.6353 1.44708 49.1539 1.73198 49.1539 2.64998V2.91377H52.1299Z" fill="#98A2B3"/>
<path d="M39.7028 8.32681C37.4818 8.32681 35.7421 6.61743 35.7421 4.49653C35.7421 2.36508 37.4818 0.666257 39.7028 0.666257C41.9239 0.666257 43.6745 2.36508 43.6745 4.49653C43.6745 6.61743 41.9239 8.32681 39.7028 8.32681ZM39.7028 7.3666C41.3768 7.3666 42.6569 6.11095 42.6569 4.49653C42.6569 2.87157 41.3768 1.61591 39.7028 1.61591C38.0288 1.61591 36.7487 2.87157 36.7487 4.49653C36.7487 6.11095 38.0288 7.3666 39.7028 7.3666Z" fill="#98A2B3"/>
<path d="M30.9091 8.18964V0.486877H31.861V8.18964H30.9091Z" fill="#98A2B3"/>
<path d="M28.515 2.91377H29.4669V8.18964H28.515V7.28219C28.0774 7.92584 27.3771 8.32681 26.4472 8.32681C24.9263 8.32681 23.679 7.11336 23.679 5.5517C23.679 3.99005 24.9263 2.7766 26.4472 2.7766C27.3771 2.7766 28.0774 3.17757 28.515 3.82122V2.91377ZM26.5675 7.44046C27.6726 7.44046 28.515 6.62798 28.515 5.5517C28.515 4.47543 27.6726 3.66295 26.5675 3.66295C25.4734 3.66295 24.6309 4.47543 24.6309 5.5517C24.6309 6.62798 25.4734 7.44046 26.5675 7.44046Z" fill="#98A2B3"/>
<path d="M23.1362 3.80012H21.6811V6.65964C21.6811 7.46157 22.1625 7.40881 23.1362 7.3666V8.18964C21.4951 8.40067 20.7292 7.9786 20.7292 6.65964V3.80012H19.646V2.91377H20.7292V1.71088L21.6811 1.43653V2.91377H23.1362V3.80012Z" fill="#98A2B3"/>
<path d="M18.2376 1.95357C17.8765 1.95357 17.5921 1.67922 17.5921 1.34157C17.5921 1.00391 17.8765 0.719015 18.2376 0.719015C18.5877 0.719015 18.8722 1.00391 18.8722 1.34157C18.8722 1.67922 18.5877 1.95357 18.2376 1.95357ZM17.7562 8.18964V2.91377H18.7081V8.18964H17.7562Z" fill="#98A2B3"/>
<path d="M15.3731 2.91377H16.314V7.96805C16.314 9.61412 14.9463 10.4372 13.524 10.4372C12.2986 10.4372 11.3795 9.98343 10.9309 9.14984L11.7625 8.69612C12.0141 9.19205 12.4736 9.58246 13.5459 9.58246C14.6838 9.58246 15.3731 8.95991 15.3731 7.96805V7.21888C14.9354 7.86253 14.2352 8.27405 13.3161 8.27405C11.7625 8.27405 10.5261 7.0606 10.5261 5.52005C10.5261 3.99005 11.7625 2.7766 13.3161 2.7766C14.2352 2.7766 14.9354 3.17757 15.3731 3.82122V2.91377ZM13.4255 7.39826C14.5306 7.39826 15.3731 6.58577 15.3731 5.52005C15.3731 4.46488 14.5306 3.65239 13.4255 3.65239C12.3205 3.65239 11.478 4.46488 11.478 5.52005C11.478 6.58577 12.3205 7.39826 13.4255 7.39826Z" fill="#98A2B3"/>
<path d="M8.90981 1.95357C8.54875 1.95357 8.26428 1.67922 8.26428 1.34157C8.26428 1.00391 8.54875 0.719015 8.90981 0.719015C9.25993 0.719015 9.5444 1.00391 9.5444 1.34157C9.5444 1.67922 9.25993 1.95357 8.90981 1.95357ZM8.4284 8.18964V2.91377H9.38028V8.18964H8.4284Z" fill="#98A2B3"/>
<path d="M3.66053 0.803427C5.77217 0.803427 7.29299 2.4495 7.29299 4.49653C7.29299 6.54357 5.77217 8.18963 3.66053 8.18963H0.673584V0.803427H3.66053ZM3.66053 7.26108C5.23605 7.26108 6.31923 6.05819 6.31923 4.49653C6.31923 2.93488 5.23605 1.73198 3.66053 1.73198H1.69111V7.26108H3.66053Z" fill="#98A2B3"/>
</svg>
