<svg class="w-4 h-4" width="16" height="16" viewBox="0 0 16 16" fill="none" xmlns="http://www.w3.org/2000/svg">
<path fill-rule="evenodd" clip-rule="evenodd" d="M7.98349 0.833985H8.01715C8.31346 0.83398 8.56082 0.833976 8.7639 0.847831C8.9753 0.862255 9.17498 0.89335 9.36857 0.973539C9.81779 1.15961 10.1747 1.51651 10.3608 1.96573C10.4576 2.19959 10.4839 2.44604 10.4939 2.71392C10.5019 2.9293 10.6106 3.109 10.771 3.20161C10.9315 3.29423 11.1414 3.29851 11.332 3.1978C11.569 3.07253 11.7955 2.97202 12.0465 2.93899C12.5286 2.87552 13.0161 3.00616 13.4019 3.30215C13.5681 3.42972 13.6949 3.5871 13.8131 3.76297C13.9266 3.93191 14.0503 4.14615 14.1984 4.40277L14.2153 4.43195C14.3634 4.68854 14.4871 4.90274 14.5766 5.08552C14.6698 5.27581 14.7428 5.46429 14.7701 5.67204C14.8336 6.15411 14.7029 6.64164 14.4069 7.0274C14.2528 7.22823 14.0525 7.37418 13.8255 7.51681C13.643 7.63146 13.5417 7.81542 13.5417 8.00062C13.5417 8.18584 13.643 8.36982 13.8255 8.48449C14.0525 8.6271 14.2528 8.77305 14.4069 8.97386C14.7029 9.35961 14.8335 9.84715 14.77 10.3292C14.7427 10.537 14.6698 10.7254 14.5766 10.9157C14.4871 11.0985 14.3634 11.3127 14.2153 11.5692L14.1983 11.5986C14.0502 11.8551 13.9265 12.0694 13.813 12.2383C13.6948 12.4142 13.568 12.5715 13.4018 12.6991C13.016 12.9951 12.5285 13.1257 12.0464 13.0623C11.7955 13.0292 11.5689 12.9287 11.3319 12.8035C11.1414 12.7028 10.9314 12.7071 10.771 12.7997C10.6106 12.8923 10.5019 13.072 10.4939 13.2873C10.4839 13.5552 10.4576 13.8017 10.3608 14.0356C10.1747 14.4848 9.81779 14.8417 9.36857 15.0278C9.17498 15.108 8.9753 15.139 8.7639 15.1535C8.56082 15.1673 8.31346 15.1673 8.01716 15.1673H7.98348C7.68718 15.1673 7.43982 15.1673 7.23674 15.1535C7.02534 15.139 6.82566 15.108 6.63207 15.0278C6.18285 14.8417 5.82595 14.4848 5.63987 14.0356C5.54301 13.8017 5.51677 13.5553 5.50675 13.2874C5.4987 13.072 5.39 12.8923 5.22959 12.7997C5.06919 12.7071 4.85921 12.7028 4.66866 12.8035C4.43166 12.9288 4.2051 13.0293 3.95415 13.0623C3.47208 13.1258 2.98454 12.9951 2.59879 12.6991C2.43255 12.5716 2.30578 12.4142 2.18758 12.2383C2.07405 12.0694 1.95037 11.8552 1.80222 11.5986L1.78538 11.5694C1.63722 11.3128 1.51354 11.0986 1.42401 10.9158C1.3308 10.7255 1.25789 10.537 1.23054 10.3293C1.16707 9.84719 1.29771 9.35966 1.5937 8.9739C1.7478 8.77309 1.94812 8.62714 2.17511 8.48452C2.35761 8.36985 2.45889 8.18587 2.4589 8.00064C2.45891 7.81539 2.35763 7.63138 2.1751 7.5167C1.94814 7.37409 1.74785 7.22815 1.59377 7.02735C1.29777 6.6416 1.16713 6.15406 1.2306 5.67199C1.25795 5.46424 1.33086 5.27576 1.42407 5.08547C1.51361 4.90268 1.63729 4.68846 1.78545 4.43186L1.80229 4.40269C1.95044 4.14608 2.07411 3.93186 2.18765 3.76292C2.30584 3.58705 2.43261 3.42967 2.59885 3.30211C2.98461 3.00611 3.47214 2.87547 3.95421 2.93894C4.20518 2.97198 4.43175 3.0725 4.66877 3.19777C4.85929 3.29847 5.06924 3.29419 5.22963 3.20159C5.39002 3.10899 5.4987 2.92931 5.50675 2.71396C5.51677 2.44606 5.543 2.1996 5.63987 1.96573C5.82595 1.51651 6.18285 1.15961 6.63207 0.973539C6.82566 0.89335 7.02534 0.862255 7.23674 0.847831C7.43982 0.833976 7.68718 0.83398 7.98349 0.833985ZM10 8.00065C10 9.10522 9.10457 10.0007 8 10.0007C6.89543 10.0007 6 9.10522 6 8.00065C6 6.89608 6.89543 6.00065 8 6.00065C9.10457 6.00065 10 6.89608 10 8.00065Z" fill="#667085"/>
</svg>
