<svg class="w-4 h-4" width="16" height="16" viewBox="0 0 16 16" fill="none" xmlns="http://www.w3.org/2000/svg">
<mask id="path-1-inside-1_3836_3948" fill="white">
<path fill-rule="evenodd" clip-rule="evenodd" d="M4.3912 11.3541C5.21673 11.9057 6.1873 12.2002 7.18016 12.2002C7.83939 12.2002 8.49217 12.0703 9.10123 11.818C9.55583 11.6297 9.97942 11.376 10.3589 11.0655L12.9801 13.6868C13.0263 13.7335 13.0813 13.7706 13.142 13.7958C13.2027 13.821 13.2678 13.8338 13.3335 13.8335C13.3992 13.8338 13.4643 13.821 13.5249 13.7958C13.5856 13.7706 13.6406 13.7335 13.6868 13.6868C13.7804 13.5931 13.833 13.466 13.833 13.3335C13.833 13.201 13.7804 13.0739 13.6868 12.9801L11.0655 10.3589C11.376 9.97942 11.6297 9.55583 11.818 9.10123C12.0703 8.49217 12.2002 7.83939 12.2002 7.18016C12.2002 6.1873 11.9057 5.21673 11.3541 4.3912C10.8025 3.56566 10.0185 2.92224 9.10123 2.54228C8.18394 2.16233 7.17459 2.06292 6.2008 2.25662C5.22702 2.45031 4.33254 2.92842 3.63048 3.63048C2.92842 4.33254 2.45031 5.22702 2.25662 6.2008C2.06292 7.17459 2.16233 8.18394 2.54228 9.10123C2.92224 10.0185 3.56566 10.8025 4.3912 11.3541ZM4.95788 3.84095C5.61567 3.40142 6.38903 3.16683 7.18016 3.16683C8.24102 3.16683 9.25844 3.58825 10.0086 4.3384C10.7587 5.08854 11.1802 6.10596 11.1802 7.16682C11.1802 7.95795 10.9456 8.73131 10.506 9.38911C10.0665 10.0469 9.4418 10.5596 8.71089 10.8623C7.97999 11.1651 7.17572 11.2443 6.3998 11.09C5.62387 10.9356 4.91114 10.5547 4.35173 9.99525C3.79232 9.43584 3.41136 8.72311 3.25702 7.94719C3.10268 7.17126 3.18189 6.367 3.48464 5.63609C3.78739 4.90519 4.30008 4.28047 4.95788 3.84095Z"/>
</mask>
<path fill-rule="evenodd" clip-rule="evenodd" d="M4.3912 11.3541C5.21673 11.9057 6.1873 12.2002 7.18016 12.2002C7.83939 12.2002 8.49217 12.0703 9.10123 11.818C9.55583 11.6297 9.97942 11.376 10.3589 11.0655L12.9801 13.6868C13.0263 13.7335 13.0813 13.7706 13.142 13.7958C13.2027 13.821 13.2678 13.8338 13.3335 13.8335C13.3992 13.8338 13.4643 13.821 13.5249 13.7958C13.5856 13.7706 13.6406 13.7335 13.6868 13.6868C13.7804 13.5931 13.833 13.466 13.833 13.3335C13.833 13.201 13.7804 13.0739 13.6868 12.9801L11.0655 10.3589C11.376 9.97942 11.6297 9.55583 11.818 9.10123C12.0703 8.49217 12.2002 7.83939 12.2002 7.18016C12.2002 6.1873 11.9057 5.21673 11.3541 4.3912C10.8025 3.56566 10.0185 2.92224 9.10123 2.54228C8.18394 2.16233 7.17459 2.06292 6.2008 2.25662C5.22702 2.45031 4.33254 2.92842 3.63048 3.63048C2.92842 4.33254 2.45031 5.22702 2.25662 6.2008C2.06292 7.17459 2.16233 8.18394 2.54228 9.10123C2.92224 10.0185 3.56566 10.8025 4.3912 11.3541ZM4.95788 3.84095C5.61567 3.40142 6.38903 3.16683 7.18016 3.16683C8.24102 3.16683 9.25844 3.58825 10.0086 4.3384C10.7587 5.08854 11.1802 6.10596 11.1802 7.16682C11.1802 7.95795 10.9456 8.73131 10.506 9.38911C10.0665 10.0469 9.4418 10.5596 8.71089 10.8623C7.97999 11.1651 7.17572 11.2443 6.3998 11.09C5.62387 10.9356 4.91114 10.5547 4.35173 9.99525C3.79232 9.43584 3.41136 8.72311 3.25702 7.94719C3.10268 7.17126 3.18189 6.367 3.48464 5.63609C3.78739 4.90519 4.30008 4.28047 4.95788 3.84095Z" fill="#475467"/>
<path d="M4.3912 11.3541L4.94677 10.5227H4.94677L4.3912 11.3541ZM9.10123 11.818L8.71855 10.8942L8.71854 10.8942L9.10123 11.818ZM10.3589 11.0655L11.066 10.3584L10.4261 9.71853L9.72566 10.2916L10.3589 11.0655ZM12.9801 13.6868L13.6916 12.9841L13.6872 12.9797L12.9801 13.6868ZM13.142 13.7958L13.5254 12.8722L13.5254 12.8722L13.142 13.7958ZM13.3335 13.8335L13.3382 12.8334L13.3287 12.8335L13.3335 13.8335ZM13.5249 13.7958L13.1416 12.8722L13.1415 12.8722L13.5249 13.7958ZM13.6868 13.6868L12.9792 12.9801L12.9753 12.9841L13.6868 13.6868ZM13.6868 12.9801L14.3944 12.2735L14.3939 12.273L13.6868 12.9801ZM11.0655 10.3589L10.2916 9.72566L9.71853 10.4261L10.3584 11.066L11.0655 10.3589ZM11.818 9.10123L10.8942 8.71854L10.8942 8.71855L11.818 9.10123ZM11.3541 4.3912L10.5227 4.94677V4.94677L11.3541 4.3912ZM9.10123 2.54228L9.48391 1.6184V1.6184L9.10123 2.54228ZM6.2008 2.25662L6.00571 1.27583L6.2008 2.25662ZM3.63048 3.63048L4.33759 4.33759L3.63048 3.63048ZM2.25662 6.2008L1.27583 6.00571L2.25662 6.2008ZM2.54228 9.10123L1.6184 9.48391H1.6184L2.54228 9.10123ZM4.95788 3.84095L4.40231 3.00948L4.95788 3.84095ZM10.0086 4.3384L9.30148 5.0455V5.04551L10.0086 4.3384ZM10.506 9.38911L9.67457 8.83354H9.67457L10.506 9.38911ZM8.71089 10.8623L8.32821 9.93846H8.32821L8.71089 10.8623ZM6.3998 11.09L6.20471 12.0708L6.3998 11.09ZM4.35173 9.99525L3.64462 10.7024H3.64462L4.35173 9.99525ZM3.25702 7.94719L2.27623 8.14228H2.27623L3.25702 7.94719ZM3.48464 5.63609L2.56076 5.25341L2.56076 5.25341L3.48464 5.63609ZM7.18016 11.2002C6.38508 11.2002 5.60785 10.9644 4.94677 10.5227L3.83562 12.1856C4.82561 12.8471 5.98951 13.2002 7.18016 13.2002V11.2002ZM8.71854 10.8942C8.23082 11.0962 7.70807 11.2002 7.18016 11.2002V13.2002C7.97072 13.2002 8.75353 13.0444 9.48391 12.7419L8.71854 10.8942ZM9.72566 10.2916C9.4218 10.5402 9.08259 10.7434 8.71855 10.8942L9.48391 12.7419C10.0291 12.5161 10.537 12.2118 10.9921 11.8395L9.72566 10.2916ZM13.6872 12.9797L11.066 10.3584L9.65177 11.7726L12.273 14.3939L13.6872 12.9797ZM13.5254 12.8722C13.5877 12.8981 13.6442 12.9361 13.6916 12.9841L12.2686 14.3895C12.4084 14.531 12.575 14.6431 12.7586 14.7194L13.5254 12.8722ZM13.3287 12.8335C13.3962 12.8332 13.4631 12.8463 13.5254 12.8722L12.7586 14.7194C12.9423 14.7956 13.1393 14.8344 13.3382 14.8335L13.3287 12.8335ZM13.1415 12.8722C13.2039 12.8463 13.2707 12.8332 13.3382 12.8335L13.3287 14.8335C13.5276 14.8344 13.7247 14.7956 13.9083 14.7194L13.1415 12.8722ZM12.9753 12.9841C13.0227 12.9361 13.0793 12.8981 13.1416 12.8722L13.9083 14.7194C14.092 14.6431 14.2586 14.531 14.3983 14.3895L12.9753 12.9841ZM12.833 13.3335C12.833 13.201 12.8856 13.0739 12.9793 12.9801L14.3944 14.3935C14.6753 14.1122 14.833 13.731 14.833 13.3335H12.833ZM12.9793 13.6868C12.8856 13.5931 12.833 13.466 12.833 13.3335H14.833C14.833 12.936 14.6753 12.5547 14.3944 12.2735L12.9793 13.6868ZM10.3584 11.066L12.9797 13.6872L14.3939 12.273L11.7726 9.65177L10.3584 11.066ZM10.8942 8.71855C10.7434 9.08259 10.5402 9.4218 10.2916 9.72566L11.8395 10.9921C12.2118 10.537 12.5161 10.0291 12.7419 9.48391L10.8942 8.71855ZM11.2002 7.18016C11.2002 7.70807 11.0962 8.23082 10.8942 8.71854L12.7419 9.48391C13.0444 8.75353 13.2002 7.97072 13.2002 7.18016H11.2002ZM10.5227 4.94677C10.9644 5.60785 11.2002 6.38508 11.2002 7.18016H13.2002C13.2002 5.98951 12.8471 4.82561 12.1856 3.83562L10.5227 4.94677ZM8.71855 3.46616C9.4531 3.77043 10.0809 4.28568 10.5227 4.94677L12.1856 3.83563C11.5241 2.84564 10.5839 2.07404 9.48391 1.6184L8.71855 3.46616ZM6.3959 3.2374C7.1757 3.08229 7.98399 3.1619 8.71855 3.46616L9.48391 1.6184C8.3839 1.16276 7.17348 1.04355 6.00571 1.27583L6.3959 3.2374ZM4.33759 4.33759C4.8998 3.77538 5.61609 3.39251 6.3959 3.2374L6.00571 1.27583C4.83795 1.50811 3.76529 2.08146 2.92338 2.92338L4.33759 4.33759ZM3.2374 6.3959C3.39251 5.61609 3.77538 4.8998 4.33759 4.33759L2.92338 2.92338C2.08146 3.76529 1.50811 4.83795 1.27583 6.00571L3.2374 6.3959ZM3.46616 8.71855C3.1619 7.98399 3.08229 7.1757 3.2374 6.3959L1.27583 6.00571C1.04355 7.17348 1.16276 8.3839 1.6184 9.48391L3.46616 8.71855ZM4.94677 10.5227C4.28568 10.0809 3.77043 9.4531 3.46616 8.71855L1.6184 9.48391C2.07404 10.5839 2.84564 11.5241 3.83563 12.1856L4.94677 10.5227ZM7.18016 2.16683C6.19125 2.16683 5.22455 2.46007 4.40231 3.00948L5.51345 4.67242C6.00679 4.34277 6.58681 4.16683 7.18016 4.16683V2.16683ZM10.7157 3.63129C9.77801 2.69361 8.50624 2.16683 7.18016 2.16683V4.16683C7.97581 4.16683 8.73887 4.4829 9.30148 5.0455L10.7157 3.63129ZM12.1802 7.16682C12.1802 5.84074 11.6534 4.56897 10.7157 3.63129L9.30148 5.04551C9.86409 5.60811 10.1802 6.37117 10.1802 7.16682H12.1802ZM11.3375 9.94468C11.8869 9.12243 12.1802 8.15573 12.1802 7.16682H10.1802C10.1802 7.76017 10.0042 8.34019 9.67457 8.83354L11.3375 9.94468ZM9.09357 11.7862C10.0072 11.4078 10.7881 10.7669 11.3375 9.94468L9.67457 8.83354C9.34492 9.32688 8.87639 9.7114 8.32821 9.93846L9.09357 11.7862ZM6.20471 12.0708C7.17461 12.2637 8.17994 12.1647 9.09358 11.7862L8.32821 9.93846C7.78003 10.1655 7.17683 10.2249 6.59489 10.1092L6.20471 12.0708ZM3.64462 10.7024C4.34389 11.4016 5.2348 11.8778 6.20471 12.0708L6.59489 10.1092C6.01294 9.99342 5.4784 9.7077 5.05884 9.28815L3.64462 10.7024ZM2.27623 8.14228C2.46916 9.11218 2.94536 10.0031 3.64462 10.7024L5.05884 9.28815C4.63928 8.86859 4.35356 8.33404 4.2378 7.7521L2.27623 8.14228ZM2.56076 5.25341C2.18232 6.16704 2.08331 7.17237 2.27623 8.14228L4.2378 7.7521C4.12205 7.17015 4.18146 6.56695 4.40852 6.01877L2.56076 5.25341ZM4.40231 3.00948C3.58006 3.55888 2.9392 4.33978 2.56076 5.25341L4.40852 6.01877C4.63558 5.4706 5.0201 5.00206 5.51345 4.67242L4.40231 3.00948Z" fill="#475467" mask="url(#path-1-inside-1_3836_3948)"/>
</svg>
