<svg class="w-5 h-5" width="20" height="20" viewBox="0 0 20 20" fill="none" xmlns="http://www.w3.org/2000/svg">
<path d="M14.791 13.3327H5.97437C4.2327 13.3327 2.6827 12.0577 2.51603 10.3243C2.32437 8.34102 3.8827 6.66602 5.8327 6.66602H16.1327C17.2244 6.66602 18.216 7.44935 18.3244 8.53268C18.4494 9.78268 17.4744 10.8327 16.2494 10.8327H7.49937C7.04103 10.8327 6.66603 10.4577 6.66603 9.99935C6.66603 9.54102 7.04103 9.16602 7.49937 9.16602H14.791C15.1327 9.16602 15.416 8.88268 15.416 8.54102C15.416 8.19935 15.1327 7.91602 14.791 7.91602H7.61603C6.52437 7.91602 5.5327 8.69935 5.42437 9.78268C5.29937 11.0327 6.27437 12.0827 7.49937 12.0827H16.1077C17.8494 12.0827 19.3994 10.8077 19.566 9.07435C19.7577 7.08268 18.1994 5.41602 16.2494 5.41602H6.02437C3.6327 5.41602 1.49103 7.16602 1.26603 9.54935C1.01603 12.291 3.14937 14.5827 5.8327 14.5827H14.791C15.1327 14.5827 15.416 14.2993 15.416 13.9577C15.416 13.616 15.1327 13.3327 14.791 13.3327Z" fill="#98A2B3"/>
</svg>
