<svg class="w-[79px] h-[17px]" width="81" height="18" viewBox="0 0 81 18" fill="none" xmlns="http://www.w3.org/2000/svg">
<path d="M80.1172 7.11669H73.6729V10.9036C73.6729 13.443 74.181 14.089 76.5832 14.089C77.8305 14.089 78.5235 14.089 80.1172 13.8663V16.9403C78.8006 17.1631 77.2993 17.2745 75.4745 17.2745C71.9636 17.2745 69.7 16.0048 69.7 13.1089V7.11669H66.1198V3.93124H69.7V1.21359L73.6729 0.12207V3.93124H80.1172V7.11669Z" fill="#2E90FA"/>
<path d="M56.2975 14.1781C59.0231 14.1781 60.6862 13.6881 61.6794 12.3515H65.6061C64.7052 15.6929 61.3329 17.2745 56.2975 17.2745C51.1236 17.2745 47.1045 15.3142 47.1045 10.5026C47.1045 5.66876 51.0081 3.70848 56.5285 3.70848C61.7025 3.70848 65.837 5.42373 65.837 11.3937H51.1467C51.5855 13.4876 53.6644 14.1781 56.2975 14.1781ZM56.5054 6.60435C53.803 6.60435 51.9089 7.11669 51.2853 8.96559H61.6101C60.9403 7.11669 59 6.60435 56.5054 6.60435Z" fill="#2E90FA"/>
<path d="M36.4251 14.1781C39.1507 14.1781 40.8137 13.6881 41.807 12.3515H45.7336C44.8328 15.6929 41.4605 17.2745 36.4251 17.2745C31.2512 17.2745 27.2321 15.3142 27.2321 10.5026C27.2321 5.66876 31.1357 3.70848 36.6561 3.70848C41.8301 3.70848 45.9646 5.42373 45.9646 11.3937H31.2742C31.7131 13.4876 33.7919 14.1781 36.4251 14.1781ZM36.633 6.60435C33.9305 6.60435 32.0365 7.11669 31.4128 8.96559H41.7377C41.0678 7.11669 39.1276 6.60435 36.633 6.60435Z" fill="#2E90FA"/>
<path d="M25.6073 1.45862V17.0517H21.4496V6.35931L14.7281 17.0517H11.7254L5.00384 6.35931V17.0517H0.846191V1.45862H6.45902L13.2267 12.4629L19.9945 1.45862H25.6073Z" fill="#2E90FA"/>
</svg>
