<svg class="w-8 h-8" width="32" height="32" viewBox="0 0 32 32" fill="none" xmlns="http://www.w3.org/2000/svg">
<rect width="32" height="32" rx="16" fill="white" fill-opacity="0.2"/>
<rect x="0.5" y="0.5" width="31" height="31" rx="15.5" stroke="url(#paint0_linear_520_855)" stroke-opacity="0.2"/>
<path opacity="0.5" d="M21.6243 13.5V14.0867C21.6243 14.7909 21.8252 15.4793 22.2018 16.0652L23.1247 17.501C23.9676 18.8124 23.3241 20.5949 21.858 21.0096C18.0227 22.0945 13.9773 22.0945 10.142 21.0096C8.67587 20.5949 8.03235 18.8124 8.8753 17.501L9.79816 16.0652C10.1748 15.4793 10.3757 14.7909 10.3757 14.0867V13.5C10.3757 10.2783 12.8938 7.66666 16 7.66666C19.1062 7.66666 21.6243 10.2783 21.6243 13.5Z" fill="white"/>
<path d="M16.625 11C16.625 10.6548 16.3452 10.375 16 10.375C15.6548 10.375 15.375 10.6548 15.375 11V14.3333C15.375 14.6785 15.6548 14.9583 16 14.9583C16.3452 14.9583 16.625 14.6785 16.625 14.3333V11Z" fill="white"/>
<path d="M12.036 21.4541C12.5785 23.1251 14.1481 24.3331 15.9999 24.3331C17.8517 24.3331 19.4213 23.1251 19.9638 21.4541C17.3426 21.946 14.6572 21.946 12.036 21.4541Z" fill="white"/>
<defs>
<linearGradient id="paint0_linear_520_855" x1="16" y1="0" x2="16" y2="32" gradientUnits="userSpaceOnUse">
<stop stop-color="white"/>
<stop offset="1" stop-color="white" stop-opacity="0"/>
</linearGradient>
</defs>
</svg>
