<svg class="w-8 h-8" width="32" height="32" viewBox="0 0 32 32" fill="none" xmlns="http://www.w3.org/2000/svg">
<rect width="32" height="32" rx="16" fill="white" fill-opacity="0.2"/>
<rect x="0.5" y="0.5" width="31" height="31" rx="15.5" stroke="url(#paint0_linear_520_874)" stroke-opacity="0.2"/>
<g clip-path="url(#clip0_520_874)">
<path opacity="0.5" d="M17.6196 24.9384C18.3674 24.1906 18.3674 22.9783 17.6196 22.2305C16.8719 21.4827 15.6595 21.4827 14.9117 22.2305C14.1639 22.9783 14.1639 24.1906 14.9117 24.9384C15.6595 25.6862 16.8719 25.6862 17.6196 24.9384Z" fill="white"/>
<path d="M21.0792 15.2966C20.2976 16.3516 19.5122 16.8988 18.926 17.3286C18.2616 17.7976 17.949 18.032 17.8318 19.1692C17.7926 19.5992 17.441 19.9118 17.011 19.9118H15.5652C15.3308 19.9118 15.0962 19.7946 14.94 19.6382C14.7836 19.4818 14.7054 19.2474 14.7054 19.013C14.9008 16.508 15.8778 15.6482 17.0894 14.7494C17.5974 14.3978 18.0662 14.0852 18.5352 13.4208C19.0822 12.7956 19.1212 11.8576 18.7306 11.0722C18.457 10.525 17.7536 9.6262 16.0732 9.6262C13.8848 9.6262 13.2204 10.955 13.0252 12.0922C12.947 12.483 12.5952 12.7956 12.2006 12.7956H10.7156C10.481 12.7956 10.2466 12.6784 10.0902 12.522C9.93401 12.3266 9.85581 12.092 9.89481 11.8576C10.2856 9.2746 12.0832 6.5 16.0732 6.5C18.496 6.5 20.532 7.6724 21.5092 9.6262C22.447 11.506 22.2906 13.6942 21.0792 15.2966Z" fill="white"/>
</g>
<defs>
<linearGradient id="paint0_linear_520_874" x1="16" y1="0" x2="16" y2="32" gradientUnits="userSpaceOnUse">
<stop stop-color="white"/>
<stop offset="1" stop-color="white" stop-opacity="0"/>
</linearGradient>
<clipPath id="clip0_520_874">
<rect width="20" height="20" fill="white" transform="translate(6 6)"/>
</clipPath>
</defs>
</svg>
