<svg class="w-6 h-6" width="24" height="25" viewBox="0 0 24 25" fill="none" xmlns="http://www.w3.org/2000/svg">
<g clip-path="url(#clip0_1_6235)">
<path d="M20.5205 12.0575C21.2559 12.7929 21.2559 13.9851 20.5205 14.7202C20.1349 15.1062 19.6235 15.2895 19.1182 15.2704C19.137 15.7757 18.9536 16.2874 18.568 16.673C18.1824 17.0586 17.6707 17.242 17.1653 17.2232C17.1845 17.7286 17.0011 18.2399 16.6155 18.6255C16.2296 19.0115 15.7182 19.1949 15.2129 19.1757C15.2317 19.6811 15.0483 20.1924 14.6627 20.5784C13.9273 21.3134 12.7355 21.3134 12 20.5784" stroke="#6C9100" stroke-width="1.5" stroke-miterlimit="10" stroke-linecap="round" stroke-linejoin="round"/>
<path d="M9.86983 18.4481L10.4023 17.9157C10.9905 17.3275 11.9443 17.3275 12.5325 17.9157C13.1207 18.5039 13.1207 19.4573 12.5325 20.0459L12 20.5784C11.4118 21.1665 10.458 21.1665 9.86983 20.5784C9.28159 19.9902 9.28159 19.0363 9.86983 18.4481ZM9.86983 18.4481L10.6685 17.6495C11.2571 17.0612 11.2571 16.1074 10.6685 15.5192C10.0803 14.931 9.12686 14.931 8.53867 15.5192L7.73959 16.3179M9.86983 18.4481C9.28164 19.0363 8.32782 19.0364 7.73964 18.4482C7.1514 17.8599 7.1514 16.9061 7.73959 16.3179M7.73959 16.3179L8.80487 15.253C9.39306 14.6648 9.39306 13.711 8.80487 13.1228C8.21668 12.5346 7.26283 12.5346 6.67464 13.1228L5.60936 14.1877M7.73959 16.3179C7.1514 16.9061 6.19792 16.9061 5.60936 16.3179C5.02117 15.7297 5.02117 14.7759 5.60936 14.1877M5.60936 14.1877L6.94089 12.8566C7.52908 12.2684 7.52908 11.3145 6.94089 10.7264C6.3527 10.1382 5.39889 10.1382 4.8107 10.7264L3.47954 12.0575C2.89098 12.6457 2.89098 13.5995 3.4795 14.1877C4.06773 14.7759 5.02117 14.7759 5.60936 14.1877Z" stroke="#6C9100" stroke-width="1.5" stroke-miterlimit="10" stroke-linecap="round" stroke-linejoin="round"/>
<path d="M12.5325 7.26458L10.9351 8.86232C10.3465 9.4505 9.3931 9.4505 8.80491 8.86232C8.21672 8.27413 8.21672 7.32027 8.80491 6.73208L12 3.53699H23.2969V11.525H19.988" stroke="#6C9100" stroke-width="1.5" stroke-miterlimit="10" stroke-linecap="round" stroke-linejoin="round"/>
<path d="M20.5205 12.0575L16.193 7.73001" stroke="#6C9100" stroke-width="1.5" stroke-miterlimit="10" stroke-linecap="round" stroke-linejoin="round"/>
<path d="M12 3.53699H0.703125V11.525" stroke="#6C9100" stroke-width="1.5" stroke-miterlimit="10" stroke-linecap="round" stroke-linejoin="round"/>
<path d="M4.01198 11.525H0.703125" stroke="#6C9100" stroke-width="1.5" stroke-miterlimit="10" stroke-linecap="round" stroke-linejoin="round"/>
<path d="M16.7929 7.26459C15.6172 8.44059 13.7081 8.44059 12.5324 7.26459" stroke="#6C9100" stroke-width="1.5" stroke-miterlimit="10" stroke-linecap="round" stroke-linejoin="round"/>
</g>
<defs>
<clipPath id="clip0_1_6235">
<rect width="24" height="24" fill="white" transform="translate(0 0.333313)"/>
</clipPath>
</defs>
</svg>
