<svg class="w-5 h-5" width="20" height="20" viewBox="0 0 20 20" fill="none" xmlns="http://www.w3.org/2000/svg">
<path fill-rule="evenodd" clip-rule="evenodd" d="M3.23242 9.06575H9.06575V3.23242H3.23242V9.06575ZM4.48242 4.48242H7.81575V7.81575H4.48242V4.48242ZM10.3158 3.23242V9.06575H16.1491V3.23242H10.3158ZM14.8991 7.81575H11.5658V4.48242H14.8991V7.81575ZM9.06575 16.1491H3.23242V10.3158H9.06575V16.1491ZM7.81575 11.5658H4.48242V14.8991H7.81575V11.5658ZM11.7741 10.3158H10.3158V11.7741H11.7741V13.2324H10.3158V14.6908H11.7741V16.1491H13.2324V14.6908H14.6908L14.6908 16.1491H16.1491V14.6908L14.6908 14.6908L14.6908 13.2324H16.1491V11.7741H14.6908V10.3158H13.2324V11.7741H11.7741V10.3158ZM13.2324 13.2324H14.6908L14.6908 11.7741H13.2324V13.2324ZM13.2324 13.2324H11.7741V14.6908H13.2324V13.2324Z" fill="#98A2B3"/>
</svg>
