<svg class="w-5 h-5" width="20" height="20" viewBox="0 0 20 20" fill="none" xmlns="http://www.w3.org/2000/svg">
<path d="M14.166 5.83398H11.666C11.2077 5.83398 10.8327 6.20898 10.8327 6.66732C10.8327 7.12565 11.2077 7.50065 11.666 7.50065H14.166C15.541 7.50065 16.666 8.62565 16.666 10.0007C16.666 11.3757 15.541 12.5007 14.166 12.5007H11.666C11.2077 12.5007 10.8327 12.8757 10.8327 13.334C10.8327 13.7923 11.2077 14.1673 11.666 14.1673H14.166C16.466 14.1673 18.3327 12.3007 18.3327 10.0007C18.3327 7.70065 16.466 5.83398 14.166 5.83398ZM6.66602 10.0007C6.66602 10.459 7.04102 10.834 7.49935 10.834H12.4993C12.9577 10.834 13.3327 10.459 13.3327 10.0007C13.3327 9.54232 12.9577 9.16732 12.4993 9.16732H7.49935C7.04102 9.16732 6.66602 9.54232 6.66602 10.0007ZM8.33268 12.5007H5.83268C4.45768 12.5007 3.33268 11.3757 3.33268 10.0007C3.33268 8.62565 4.45768 7.50065 5.83268 7.50065H8.33268C8.79102 7.50065 9.16602 7.12565 9.16602 6.66732C9.16602 6.20898 8.79102 5.83398 8.33268 5.83398H5.83268C3.53268 5.83398 1.66602 7.70065 1.66602 10.0007C1.66602 12.3007 3.53268 14.1673 5.83268 14.1673H8.33268C8.79102 14.1673 9.16602 13.7923 9.16602 13.334C9.16602 12.8757 8.79102 12.5007 8.33268 12.5007Z" fill="#98A2B3"/>
</svg>
