<svg class="w-8 h-8" width="32" height="32" viewBox="0 0 32 32" fill="none" xmlns="http://www.w3.org/2000/svg">
<rect width="32" height="32" rx="16" fill="white" fill-opacity="0.2"/>
<rect x="0.5" y="0.5" width="31" height="31" rx="15.5" stroke="url(#paint0_linear_520_869)" stroke-opacity="0.2"/>
<path opacity="0.5" d="M23.5 19.3319V14.3319C23.5 11.9749 23.5 10.7963 22.7678 10.0641C22.1274 9.42379 21.1459 9.34342 19.3333 9.33333H12.6667C10.8541 9.34342 9.87255 9.42379 9.23223 10.0641C8.5 10.7963 8.5 11.9749 8.5 14.3319V19.3319C8.5 21.6889 8.5 22.8674 9.23223 23.5996C9.96447 24.3319 11.143 24.3319 13.5 24.3319H18.5C20.857 24.3319 22.0355 24.3319 22.7678 23.5996C23.5 22.8674 23.5 21.6889 23.5 19.3319Z" fill="white"/>
<path d="M12.6666 8.91667C12.6666 8.22632 13.2263 7.66667 13.9166 7.66667H18.0833C18.7736 7.66667 19.3333 8.22632 19.3333 8.91667V9.75001C19.3333 10.4404 18.7736 11 18.0833 11H13.9166C13.2263 11 12.6666 10.4404 12.6666 9.75001V8.91667Z" fill="white"/>
<path fill-rule="evenodd" clip-rule="evenodd" d="M11.2084 14.75C11.2084 14.4048 11.4882 14.125 11.8334 14.125H20.1667C20.5119 14.125 20.7917 14.4048 20.7917 14.75C20.7917 15.0952 20.5119 15.375 20.1667 15.375H11.8334C11.4882 15.375 11.2084 15.0952 11.2084 14.75ZM12.0417 17.6667C12.0417 17.3215 12.3215 17.0417 12.6667 17.0417H19.3334C19.6786 17.0417 19.9584 17.3215 19.9584 17.6667C19.9584 18.0118 19.6786 18.2917 19.3334 18.2917H12.6667C12.3215 18.2917 12.0417 18.0118 12.0417 17.6667ZM12.875 20.5833C12.875 20.2382 13.1549 19.9583 13.5 19.9583H18.5C18.8452 19.9583 19.125 20.2382 19.125 20.5833C19.125 20.9285 18.8452 21.2083 18.5 21.2083H13.5C13.1549 21.2083 12.875 20.9285 12.875 20.5833Z" fill="white"/>
<defs>
<linearGradient id="paint0_linear_520_869" x1="16" y1="0" x2="16" y2="32" gradientUnits="userSpaceOnUse">
<stop stop-color="white"/>
<stop offset="1" stop-color="white" stop-opacity="0"/>
</linearGradient>
</defs>
</svg>
