<svg class="w-4 h-4" width="16" height="16" viewBox="0 0 16 16" fill="none" xmlns="http://www.w3.org/2000/svg">
<path d="M6.20093 2.25659C7.17463 2.06296 8.18411 2.16183 9.10132 2.54175C10.0186 2.9217 10.8027 3.56585 11.3542 4.39136C11.9057 5.21681 12.1999 6.1877 12.1999 7.18042C12.1999 7.83951 12.0703 8.49239 11.8181 9.10132C11.6299 9.55577 11.3755 9.9788 11.0652 10.3582L13.6863 12.9802C13.7799 13.074 13.8328 13.2012 13.8328 13.3337C13.8326 13.4661 13.7798 13.5926 13.6863 13.6863C13.6402 13.7329 13.5857 13.7705 13.5251 13.7957C13.4646 13.8208 13.3993 13.834 13.3337 13.8337C13.268 13.834 13.202 13.8208 13.1414 13.7957C13.0808 13.7705 13.0263 13.7329 12.9802 13.6863L10.3582 11.0652C9.9788 11.3755 9.55577 11.6299 9.10132 11.8181C8.49239 12.0703 7.83951 12.1999 7.18042 12.1999C6.1877 12.1999 5.21681 11.9057 4.39136 11.3542C3.56585 10.8027 2.9217 10.0186 2.54175 9.10132C2.16183 8.18411 2.06296 7.17463 2.25659 6.20093C2.45029 5.22714 2.92855 4.33267 3.63061 3.63061C4.33267 2.92855 5.22714 2.45029 6.20093 2.25659ZM7.18042 3.16675C6.38934 3.16675 5.61553 3.4011 4.95776 3.84057C4.30004 4.28005 3.78689 4.9047 3.48413 5.6355C3.18138 6.36638 3.10226 7.17111 3.25659 7.94702C3.41091 8.72284 3.79203 9.4355 4.35132 9.99487C4.91061 10.5542 5.62343 10.9352 6.39917 11.0896C7.17509 11.2439 7.97979 11.1648 8.71069 10.8621C9.44143 10.5594 10.0661 10.047 10.5056 9.3894C10.9451 8.73163 11.1804 7.95784 11.1804 7.16675C11.1804 6.106 10.7585 5.08874 10.0085 4.33862C9.2585 3.58858 8.24113 3.16686 7.18042 3.16675Z" fill="#667085"/>
</svg>
