<svg class="w-[32px] h-[32px]" width="32" height="32" viewBox="0 0 32 32" fill="none" xmlns="http://www.w3.org/2000/svg">
<rect width="32" height="32" rx="8" fill="#36BFFA"/>
<rect x="0.5" y="0.5" width="31" height="31" rx="7.5" stroke="url(#paint0_linear_457_850)" stroke-opacity="0.2"/>
<path opacity="0.5" fill-rule="evenodd" clip-rule="evenodd" d="M17.899 7.79353C17.5904 7.66667 17.1991 7.66667 16.4167 7.66667C15.6342 7.66667 15.2429 7.66667 14.9343 7.79353C14.5228 7.96269 14.1959 8.28715 14.0255 8.69553C13.9477 8.88195 13.9172 9.09875 13.9053 9.41499C13.8878 9.87973 13.6476 10.3099 13.2418 10.5424C12.836 10.775 12.3405 10.7663 11.9262 10.549C11.6443 10.4011 11.4399 10.3189 11.2383 10.2925C10.7967 10.2348 10.3502 10.3536 9.9968 10.6227C9.73178 10.8245 9.53616 11.1607 9.14492 11.8333C8.75368 12.5058 8.55806 12.8421 8.51446 13.1708C8.45632 13.609 8.57598 14.0522 8.84712 14.4029C8.97088 14.563 9.14481 14.6975 9.41475 14.8659C9.8116 15.1133 10.0669 15.5349 10.0669 16C10.0669 16.4651 9.81155 16.8866 9.41475 17.134C9.14476 17.3024 8.97081 17.437 8.84704 17.597C8.5759 17.9477 8.45624 18.3909 8.51437 18.8292C8.55798 19.1579 8.7536 19.4941 9.14484 20.1667C9.53608 20.8392 9.7317 21.1755 9.99671 21.3773C10.3501 21.6464 10.7967 21.7651 11.2382 21.7074C11.4398 21.6811 11.6442 21.5989 11.9261 21.451C12.3404 21.2337 12.8359 21.225 13.2418 21.4575C13.6476 21.6901 13.8878 22.1203 13.9053 22.5851C13.9172 22.9013 13.9477 23.1181 14.0255 23.3045C14.1959 23.7129 14.5228 24.0373 14.9343 24.2065C15.2429 24.3333 15.6342 24.3333 16.4167 24.3333C17.1991 24.3333 17.5904 24.3333 17.899 24.2065C18.3105 24.0373 18.6374 23.7129 18.8079 23.3045C18.8857 23.118 18.9161 22.9012 18.928 22.585C18.9456 22.1203 19.1857 21.6901 19.5915 21.4575C19.9973 21.225 20.4928 21.2336 20.9072 21.451C21.1891 21.5988 21.3934 21.681 21.595 21.7074C22.0366 21.7651 22.4832 21.6463 22.8365 21.3772C23.1016 21.1754 23.2972 20.8391 23.6884 20.1666C24.0797 19.4941 24.2753 19.1578 24.3189 18.8291C24.377 18.3909 24.2573 17.9477 23.9862 17.597C23.8624 17.4369 23.6885 17.3023 23.4185 17.134C23.0217 16.8866 22.7664 16.465 22.7664 15.9999C22.7665 15.5349 23.0218 15.1134 23.4185 14.866C23.6885 14.6976 23.8625 14.563 23.9863 14.403C24.2574 14.0523 24.3771 13.6091 24.319 13.1708C24.2754 12.8421 24.0797 12.5059 23.6885 11.8333C23.2973 11.1608 23.1016 10.8245 22.8366 10.6227C22.4833 10.3536 22.0367 10.2349 21.5951 10.2926C21.3935 10.3189 21.1891 10.4011 20.9072 10.549C20.4929 10.7663 19.9974 10.775 19.5916 10.5425C19.1857 10.3099 18.9456 9.87972 18.928 9.41495C18.9161 9.09873 18.8857 8.88194 18.8079 8.69553C18.6374 8.28715 18.3105 7.96269 17.899 7.79353Z" fill="white"/>
<path d="M18.9357 16C18.9357 17.3807 17.8078 18.5 16.4166 18.5C15.0254 18.5 13.8976 17.3807 13.8976 16C13.8976 14.6193 15.0254 13.5 16.4166 13.5C17.8078 13.5 18.9357 14.6193 18.9357 16Z" fill="white"/>
<defs>
<linearGradient id="paint0_linear_457_850" x1="16" y1="0" x2="16" y2="32" gradientUnits="userSpaceOnUse">
<stop stop-color="white"/>
<stop offset="1" stop-color="white" stop-opacity="0"/>
</linearGradient>
</defs>
</svg>
