<svg class="w-4 h-4" width="24" height="24" viewBox="0 0 24 24" fill="none" xmlns="http://www.w3.org/2000/svg">
<g clip-path="url(#clip0_3849_12374)">
<path fill-rule="evenodd" clip-rule="evenodd" d="M0 12.8407H3.36278L8.47059 15.3946V12.8406H11.2941V0.134766H0V12.8407ZM4 9.809H8.279V8.687H5.364V3H4V9.809Z" fill="#12B76A"/>
<path fill-rule="evenodd" clip-rule="evenodd" d="M12.7051 8.60547V21.3114H15.5286V23.8653L20.6364 21.3114H23.9992V8.60547H12.7051ZM19.3542 18.3091C19.2735 18.0524 19.1562 17.7774 19.0022 17.4841C18.8555 17.1834 18.6905 16.8938 18.5072 16.6151C18.3239 16.3291 18.1295 16.0651 17.9242 15.8231C17.7262 15.5738 17.5355 15.3648 17.3522 15.1961V18.3091H15.9992V11.5001H17.3522V14.3271C17.5135 14.1218 17.6822 13.8944 17.8582 13.6451C18.0342 13.3958 18.1992 13.1464 18.3532 12.8971C18.5145 12.6478 18.6612 12.4021 18.7932 12.1601C18.9252 11.9181 19.0352 11.6981 19.1232 11.5001H20.6522C20.5495 11.6981 20.4249 11.9254 20.2782 12.1821C20.1389 12.4314 19.9775 12.6954 19.7942 12.9741C19.6109 13.2454 19.4129 13.5241 19.2002 13.8101C18.9949 14.0961 18.7785 14.3711 18.5512 14.6351C18.7785 14.8551 19.0095 15.1081 19.2442 15.3941C19.4789 15.6801 19.6989 15.9881 19.9042 16.3181C20.1169 16.6408 20.3075 16.9744 20.4762 17.3191C20.6449 17.6564 20.7805 17.9864 20.8832 18.3091H19.3542Z" fill="#0BA5EC"/>
<path d="M7.37397 18.5018L6.35373 17.8216V20.6053H9.88314V22.0171H4.94197V17.8216L3.92173 18.5018L3.13867 17.3271L5.64785 15.6543L8.15703 17.3271L7.37397 18.5018Z" fill="#0BA5EC"/>
<path d="M17.6467 5.16805L16.6264 4.48791L15.8434 5.66259L18.3525 7.33539L20.8617 5.66259L20.0787 4.48791L19.0584 5.16805V0.972656H14.1172V2.38443H17.6467V5.16805Z" fill="#12B76A"/>
</g>
<defs>
<clipPath id="clip0_3849_12374">
<rect width="24" height="24" fill="white"/>
</clipPath>
</defs>
</svg>
