<svg class="w-4 h-4" width="16" height="16" viewBox="0 0 16 16" fill="none" xmlns="http://www.w3.org/2000/svg">
<rect width="16" height="16" rx="8" fill="white"/>
<path fill-rule="evenodd" clip-rule="evenodd" d="M14.6654 7.9987C14.6654 11.6806 11.6806 14.6654 7.9987 14.6654C4.3168 14.6654 1.33203 11.6806 1.33203 7.9987C1.33203 4.3168 4.3168 1.33203 7.9987 1.33203C11.6806 1.33203 14.6654 4.3168 14.6654 7.9987ZM10.6856 5.97848C10.8808 6.17374 10.8808 6.49032 10.6856 6.68558L7.35225 10.0189C7.15699 10.2142 6.84041 10.2142 6.64514 10.0189L5.31181 8.68558C5.11655 8.49032 5.11655 8.17374 5.31181 7.97848C5.50707 7.78321 5.82366 7.78321 6.01892 7.97848L6.9987 8.95826L8.48859 7.46837L9.97848 5.97848C10.1737 5.78322 10.4903 5.78322 10.6856 5.97848Z" fill="#0BA5EC"/>
</svg>
