<svg class="w-5 h-5" width="21" height="20" viewBox="0 0 21 20" fill="none" xmlns="http://www.w3.org/2000/svg">
<path d="M11.333 4.375C11.9408 4.375 12.5243 4.61613 12.9541 5.0459C13.3839 5.47567 13.625 6.0592 13.625 6.66699V8.06348L16.8418 6.13379C16.9375 6.07654 17.0467 6.04592 17.1582 6.0459C17.2697 6.0459 17.3789 6.07656 17.4746 6.13379C17.5704 6.1881 17.6504 6.26632 17.7061 6.36133C17.7616 6.45639 17.7916 6.56469 17.792 6.6748V13.3418C17.7916 13.4519 17.7616 13.5602 17.7061 13.6553C17.6504 13.7503 17.5704 13.8295 17.4746 13.8838C17.3808 13.9362 17.2744 13.9615 17.167 13.958C17.0525 13.9562 16.9403 13.9245 16.8418 13.8662L13.625 11.9355V13.333C13.625 13.9408 13.3839 14.5243 12.9541 14.9541C12.5243 15.3839 11.9408 15.625 11.333 15.625H5.5C4.89237 15.625 4.30962 15.3837 3.87988 14.9541C3.45011 14.5243 3.20801 13.9408 3.20801 13.333V6.66699C3.20801 6.0592 3.45011 5.47567 3.87988 5.0459C4.30962 4.61633 4.89237 4.375 5.5 4.375H11.333ZM5.5 5.625C5.22389 5.625 4.95899 5.73454 4.76367 5.92969C4.56832 6.12504 4.45801 6.39072 4.45801 6.66699V13.333C4.45801 13.6093 4.56832 13.875 4.76367 14.0703C4.95899 14.2655 5.22389 14.375 5.5 14.375H11.333C11.6093 14.375 11.875 14.2657 12.0703 14.0703C12.2657 13.875 12.375 13.6093 12.375 13.333V6.66699C12.375 6.39072 12.2657 6.12504 12.0703 5.92969C11.875 5.73434 11.6093 5.625 11.333 5.625H5.5ZM13.625 9.5166V10.4834L16.542 12.2334V7.7666L13.625 9.5166Z" fill="white"/>
</svg>
