<svg class="w-10 h-10" width="40" height="40" viewBox="0 0 40 40" fill="none" xmlns="http://www.w3.org/2000/svg">
<path d="M15.5556 2.22222C15.5556 2.22222 15.5556 0 17.7778 0C20 0 20 2.22222 20 2.22222V4.44444C20 4.44444 20 6.66667 17.7778 6.66667C15.5556 6.66667 15.5556 4.44444 15.5556 4.44444V2.22222ZM33.3333 15.5556C33.3333 15.5556 35.5556 15.5556 35.5556 17.7778C35.5556 20 33.3333 20 33.3333 20H31.1111C31.1111 20 28.8889 20 28.8889 17.7778C28.8889 15.5556 31.1111 15.5556 31.1111 15.5556H33.3333ZM4.44444 15.5556C4.44444 15.5556 6.66667 15.5556 6.66667 17.7778C6.66667 20 4.44444 20 4.44444 20H2.22222C2.22222 20 0 20 0 17.7778C0 15.5556 2.22222 15.5556 2.22222 15.5556H4.44444ZM8.74667 6.71445C8.74667 6.71445 10.3178 8.28556 8.74667 9.85667C7.17556 11.4278 5.60444 9.85667 5.60444 9.85667L4.03222 8.28667C4.03222 8.28667 2.46111 6.71556 4.03222 5.14333C5.60444 3.57222 7.17556 5.14333 7.17556 5.14333L8.74667 6.71445ZM29.9522 9.85667C29.9522 9.85667 28.3811 11.4278 26.81 9.85667C25.2389 8.28556 26.81 6.71445 26.81 6.71445L28.3811 5.14333C28.3811 5.14333 29.9522 3.57222 31.5233 5.14333C33.0944 6.71445 31.5233 8.28556 31.5233 8.28556L29.9522 9.85667Z" fill="#FDB022"/>
<path d="M17.7773 27.7778C23.3002 27.7778 27.7773 23.3006 27.7773 17.7778C27.7773 12.2549 23.3002 7.77777 17.7773 7.77777C12.2545 7.77777 7.77734 12.2549 7.77734 17.7778C7.77734 23.3006 12.2545 27.7778 17.7773 27.7778Z" fill="#FDB022"/>
<path d="M31.1111 22.2222C30.1944 22.2222 29.3111 22.3611 28.4789 22.6189C27.9856 21.2052 27.0649 19.9799 25.8444 19.1125C24.6239 18.2452 23.164 17.7787 21.6667 17.7778C18.2844 17.7778 15.4533 20.1067 14.6678 23.2455C13.8065 22.5849 12.7521 22.2254 11.6667 22.2222C10.3406 22.2222 9.06882 22.749 8.13113 23.6867C7.19345 24.6244 6.66667 25.8961 6.66667 27.2222C6.66667 27.8933 6.80333 28.5311 7.04333 29.1156C6.56004 28.9726 6.05949 28.8963 5.55556 28.8889C2.48667 28.8889 0 31.3755 0 34.4444C0 37.5133 2.48667 40 5.55556 40H31.1111C33.4686 40 35.7295 39.0635 37.3965 37.3965C39.0635 35.7295 40 33.4686 40 31.1111C40 28.7536 39.0635 26.4927 37.3965 24.8257C35.7295 23.1587 33.4686 22.2222 31.1111 22.2222Z" fill="white"/>
</svg>
